<?xml version="1.0" encoding="UTF-8"?>
<svg id="Layer_1" data-name="Layer 1" xmlns="http://www.w3.org/2000/svg" version="1.1" viewBox="40 190 480 230" width="480" height="230">
  <path d="M79.46,248.63v-.34c8.13-2.75,14.55-9.51,14.55-19.7,0-5.96-2.18-11.22-6.07-14.66-4.81-4.35-11.68-6.3-22.33-6.3-6.87,0-14.09.57-19.13,1.6v76.16h9.96v-33.44h9.39c9.05.34,13.17,4.35,15.46,15,2.18,9.62,3.89,16.26,5.15,18.44h10.31c-1.6-2.98-3.44-10.42-5.96-21.19-1.83-8.02-5.38-13.51-11.34-15.58ZM66.64,244.39h-10.19v-28.18c1.6-.46,5.04-.92,9.85-.92,10.54.11,17.75,4.47,17.75,14.43,0,8.82-6.76,14.66-17.41,14.66ZM118.06,277.03h33.44v8.36h-43.41v-77.19h41.69v8.36h-31.73v24.4h30.01v8.25h-30.01v27.83ZM210.36,208.2h10.65l-27.6,77.19h-11l-25.2-77.19h10.77l12.03,38.02c3.32,10.42,6.19,19.81,8.25,28.86h.23c2.18-8.93,5.38-18.67,8.82-28.75l13.06-38.14ZM260.64,206.94c-20.62,0-35.85,16.03-35.85,40.54s14.32,39.17,34.7,39.17,35.85-14.09,35.85-40.66c0-22.91-13.63-39.06-34.7-39.06ZM260.07,278.52c-15.69,0-24.62-14.77-24.62-31.27s8.25-32.18,24.74-32.18,24.62,16.03,24.62,31.38c0,17.52-8.93,32.07-24.74,32.07ZM341.61,244.85h25.43v37.11c-4.47,1.6-13.29,4.24-23.71,4.24-11.68,0-21.3-2.98-28.86-10.19-6.64-6.41-10.77-16.72-10.77-28.75.11-23.02,15.92-39.86,41.8-39.86,8.93,0,15.92,1.95,19.24,3.55l-2.41,8.13c-4.12-1.83-9.28-3.32-17.07-3.32-18.78,0-31.04,11.68-31.04,31.04s11.8,31.15,29.78,31.15c6.53,0,11-.92,13.29-2.06v-23.02h-15.69v-8.02ZM428.99,208.2h10.08v45.01c0,23.71-12.48,33.44-29.21,33.44-15.81,0-27.72-9.05-27.72-32.99v-45.47h10.08v45.7c0,17.29,7.67,24.62,17.98,24.62,11.45,0,18.78-7.56,18.78-24.62v-45.7ZM499.77,277.03v8.36h-43.41v-77.19h41.69v8.36h-31.73v24.4h30.01v8.25h-30.01v27.83h33.44Z" style="fill: #000; stroke-width: 0px;"/>
</svg>
